<svg xmlns="http://www.w3.org/2000/svg" xmlns:xlink="http://www.w3.org/1999/xlink" width="40" zoomAndPan="magnify" viewBox="0 0 30 30.000001" height="40" preserveAspectRatio="xMidYMid meet" version="1.0"><defs><clipPath id="b777948254"><path d="M 12 15 L 27.339844 15 L 27.339844 20 L 12 20 Z M 12 15 " clip-rule="nonzero"/></clipPath><clipPath id="1945043b56"><path d="M 3.386719 0 L 23 0 L 23 29.03125 L 3.386719 29.03125 Z M 3.386719 0 " clip-rule="nonzero"/></clipPath></defs><g clip-path="url(#b777948254)"><path fill="#000000" d="M 27.285156 17.414062 C 27.285156 16.519531 26.613281 15.792969 25.78125 15.792969 L 13.785156 15.792969 C 12.953125 15.792969 12.28125 16.519531 12.28125 17.414062 C 12.28125 18.308594 12.953125 19.035156 13.785156 19.035156 L 25.78125 19.035156 C 26.613281 19.035156 27.285156 18.308594 27.285156 17.414062 Z M 27.285156 17.414062 " fill-opacity="1" fill-rule="nonzero"/></g><g clip-path="url(#1945043b56)"><path fill="#000000" d="M 5.207031 22.03125 L 10.347656 27.28125 C 11.507812 28.460938 13.113281 29.03125 14.882812 29.03125 C 16.652344 29.03125 18.257812 28.414062 19.421875 27.234375 L 22.503906 24.054688 C 23.113281 23.4375 23.09375 22.410156 22.460938 21.765625 C 21.824219 21.121094 20.820312 21.101562 20.214844 21.71875 L 17.023438 24.859375 C 16.472656 25.421875 15.707031 25.65625 14.867188 25.65625 C 14.023438 25.65625 13.261719 25.421875 12.707031 24.859375 L 7.582031 19.605469 C 7.03125 19.042969 6.753906 18.21875 6.753906 17.359375 C 6.753906 16.5 7.03125 15.726562 7.582031 15.164062 L 12.691406 9.886719 C 13.246094 9.324219 14.023438 9.109375 14.863281 9.109375 C 15.707031 9.109375 16.46875 9.34375 17.019531 9.90625 L 20.210938 13.046875 C 20.820312 13.667969 21.824219 13.644531 22.460938 13 C 23.09375 12.355469 23.113281 11.328125 22.503906 10.710938 L 19.421875 7.535156 C 18.644531 6.757812 17.667969 6.191406 16.566406 5.933594 L 16.527344 5.925781 L 19.445312 2.910156 C 20.054688 2.289062 20.035156 1.265625 19.402344 0.621094 C 18.769531 -0.0234375 17.761719 -0.046875 17.152344 0.574219 L 5.207031 12.742188 C 4.046875 13.921875 3.441406 15.554688 3.441406 17.359375 C 3.441406 19.164062 4.046875 20.847656 5.207031 22.03125 Z M 5.207031 22.03125 " fill-opacity="1" fill-rule="nonzero"/></g></svg>