<svg xmlns="http://www.w3.org/2000/svg" xmlns:xlink="http://www.w3.org/1999/xlink" width="60" zoomAndPan="magnify" viewBox="0 0 45 30.000001" height="40" preserveAspectRatio="xMidYMid meet" version="1.0"><defs><clipPath id="e6a048b26b"><path d="M 19 3.222656 L 43.9375 3.222656 L 43.9375 25.722656 L 19 25.722656 Z M 19 3.222656 " clip-rule="nonzero"/></clipPath><clipPath id="8f8f769b86"><path d="M 1.113281 3.222656 L 24 3.222656 L 24 25.722656 L 1.113281 25.722656 Z M 1.113281 3.222656 " clip-rule="nonzero"/></clipPath></defs><g clip-path="url(#e6a048b26b)"><path fill="#9e9f9e" d="M 20.289062 11.15625 C 20.128906 11.648438 20.007812 12.152344 19.917969 12.664062 C 19.878906 12.890625 19.847656 13.121094 19.824219 13.347656 C 19.746094 15.035156 19.910156 15.828125 19.910156 15.828125 C 20.152344 17.582031 20.835938 19.304688 21.886719 20.808594 C 23.875 23.65625 27.175781 25.722656 31.265625 25.722656 C 33.976562 25.722656 35.894531 24.570312 36.242188 24.386719 L 36.960938 25.332031 L 43.910156 25.332031 L 40.824219 21.058594 C 40.824219 21.058594 42.917969 18.339844 42.925781 14.800781 C 42.941406 7.851562 38.050781 3.335938 31.222656 3.324219 C 27.269531 3.320312 23.914062 5.238281 21.875 8.046875 C 21.1875 8.996094 20.652344 10.042969 20.289062 11.15625 Z M 36.597656 15.988281 L 36.003906 15.191406 L 28.953125 15.191406 L 31.820312 19.3125 C 28.835938 19.894531 26.015625 17.410156 26.058594 14.519531 C 26.101562 11.566406 28.492188 9.355469 31.359375 9.375 C 34.5 9.398438 37.632812 12.769531 36.597656 15.988281 Z M 36.597656 15.988281 " fill-opacity="1" fill-rule="nonzero"/></g><g clip-path="url(#8f8f769b86)"><path fill="#9e9f9e" d="M 21.878906 8.039062 C 21.804688 7.941406 21.734375 7.839844 21.660156 7.742188 C 19.96875 5.5 17.03125 3.226562 12.46875 3.222656 C 7.105469 3.214844 2.964844 6.785156 1.601562 11.152344 C 1.585938 11.203125 1.570312 11.257812 1.554688 11.308594 C 1.554688 11.3125 1.554688 11.3125 1.550781 11.316406 C 1.269531 12.292969 1.121094 13.324219 1.121094 14.390625 C 1.132812 15.410156 1.265625 16.386719 1.507812 17.308594 C 2.367188 20.496094 4.609375 23.125 7.558594 24.535156 C 7.582031 24.546875 7.605469 24.558594 7.628906 24.570312 C 7.644531 24.578125 7.660156 24.582031 7.675781 24.589844 C 9.164062 25.265625 10.835938 25.640625 12.613281 25.652344 C 16.378906 25.625 19.710938 23.789062 21.761719 20.980469 C 21.804688 20.921875 21.847656 20.863281 21.886719 20.804688 C 22.28125 20.246094 22.621094 19.65625 22.90625 19.03125 C 23.550781 17.617188 23.914062 16.050781 23.914062 14.398438 C 23.914062 13.804688 23.867188 13.226562 23.777344 12.660156 L 13.363281 12.660156 L 13.363281 17.933594 L 16.234375 17.933594 C 16.234375 18.0625 14.761719 19.488281 12.550781 19.488281 C 10.121094 19.488281 7.371094 17.578125 7.316406 14.515625 C 7.257812 11.347656 10.011719 9.269531 12.550781 9.359375 C 14.613281 9.433594 15.402344 10.019531 16.550781 11.148438 C 16.550781 11.148438 18.214844 11.148438 19.90625 11.148438 C 20.035156 11.148438 20.164062 11.148438 20.292969 11.148438 C 21.804688 11.152344 23.242188 11.152344 23.417969 11.152344 C 23.367188 10.957031 23.296875 10.734375 23.207031 10.5 C 22.941406 9.796875 22.507812 8.929688 21.878906 8.039062 Z M 21.878906 8.039062 " fill-opacity="1" fill-rule="nonzero"/></g></svg>