<svg xmlns="http://www.w3.org/2000/svg" xmlns:xlink="http://www.w3.org/1999/xlink" width="146" zoomAndPan="magnify" viewBox="0 0 109.5 30.000001" height="40" preserveAspectRatio="xMidYMid meet" version="1.0"><defs><clipPath id="d240bc2dea"><path d="M 1.523438 6.65625 L 107.492188 6.65625 L 107.492188 22.699219 L 1.523438 22.699219 Z M 1.523438 6.65625 " clip-rule="nonzero"/></clipPath></defs><g clip-path="url(#d240bc2dea)"><path fill="#9e9f9e" d="M 48.835938 6.921875 C 48.386719 7.039062 47.085938 7.136719 45.953125 7.136719 C 44.011719 7.113281 43.800781 7.160156 42.828125 7.832031 C 42.238281 8.238281 41.71875 8.574219 41.648438 8.574219 C 41.597656 8.574219 41.480469 8.238281 41.386719 7.855469 L 41.222656 7.136719 L 39.421875 7.136719 C 37.695312 7.136719 37.601562 7.160156 36.964844 7.902344 L 36.277344 8.691406 L 36.65625 7.902344 L 37.035156 7.136719 L 35.070312 7.136719 C 33.15625 7.136719 33.109375 7.136719 32.210938 8.023438 L 31.285156 8.933594 L 31.453125 8.023438 L 31.617188 7.136719 L 30.011719 7.136719 C 28.519531 7.136719 28.355469 7.183594 27.621094 7.902344 L 26.839844 8.667969 L 26.839844 7.136719 L 13.429688 7.136719 L 12.863281 7.757812 L 12.292969 8.382812 L 12.175781 7.808594 C 12.035156 7.28125 11.914062 7.257812 10 7.183594 L 7.988281 7.113281 L 6.332031 8.980469 L 4.679688 10.847656 L 3.09375 16.664062 C 2.242188 19.875 1.53125 22.53125 1.53125 22.601562 C 1.53125 22.652344 2.148438 22.699219 2.90625 22.699219 C 4.039062 22.675781 4.394531 22.578125 5.199219 21.957031 L 6.144531 21.238281 L 6.359375 21.957031 C 6.570312 22.675781 6.59375 22.699219 8.011719 22.699219 C 8.960938 22.699219 9.667969 22.554688 10 22.316406 C 10.472656 21.980469 10.519531 21.980469 10.519531 22.316406 C 10.519531 22.652344 10.96875 22.699219 13.617188 22.699219 C 16.671875 22.699219 16.71875 22.699219 17.757812 21.980469 L 18.796875 21.238281 L 18.796875 22.699219 L 20.289062 22.699219 C 21.542969 22.699219 21.96875 22.578125 22.890625 21.980469 C 23.503906 21.597656 24.050781 21.261719 24.097656 21.261719 C 24.121094 21.261719 24.121094 21.597656 24.050781 21.980469 L 23.953125 22.699219 L 25.539062 22.699219 C 27.078125 22.699219 27.171875 22.652344 28.945312 21.382812 C 29.960938 20.664062 30.886719 19.945312 31.027344 19.777344 C 31.144531 19.609375 31.996094 17.863281 32.894531 15.898438 C 33.792969 13.9375 34.550781 12.476562 34.597656 12.667969 C 34.621094 12.859375 34.789062 14.078125 34.953125 15.394531 C 35.238281 17.648438 35.238281 17.910156 34.714844 19.945312 C 34.433594 21.140625 34.171875 22.242188 34.171875 22.386719 C 34.171875 22.601562 34.667969 22.699219 35.851562 22.699219 C 37.414062 22.699219 37.578125 22.652344 38.738281 21.742188 L 39.96875 20.808594 L 40.441406 21.359375 C 41.171875 22.242188 41.976562 22.554688 43.539062 22.554688 C 44.699219 22.554688 45.3125 22.386719 46.804688 21.667969 C 48.53125 20.832031 48.625 20.808594 48.480469 21.332031 C 48.054688 22.792969 47.984375 22.699219 49.617188 22.699219 C 50.941406 22.699219 51.273438 22.601562 52.148438 21.957031 L 53.164062 21.214844 L 52.882812 22.699219 L 54.441406 22.699219 C 55.578125 22.699219 56.144531 22.578125 56.453125 22.292969 C 56.855469 21.933594 56.878906 21.933594 56.878906 22.292969 C 56.878906 22.625 57.140625 22.699219 58.367188 22.699219 C 59.621094 22.675781 59.976562 22.578125 60.78125 21.957031 L 61.726562 21.238281 L 61.917969 21.980469 L 62.105469 22.699219 L 66.175781 22.699219 L 67.925781 21.238281 C 68.871094 20.449219 69.652344 19.824219 69.652344 19.875 C 69.652344 19.921875 69.507812 20.496094 69.320312 21.191406 C 69.128906 21.859375 69.058594 22.484375 69.128906 22.554688 C 69.203125 22.625 69.886719 22.699219 70.667969 22.699219 C 71.992188 22.699219 72.15625 22.625 74.027344 21.261719 C 75.234375 20.375 76.035156 19.609375 76.132812 19.25 C 76.25 18.796875 76.460938 18.675781 77.265625 18.554688 C 77.835938 18.484375 78.308594 18.4375 78.332031 18.460938 C 78.355469 18.507812 78.261719 18.964844 78.140625 19.488281 C 77.621094 21.574219 78.828125 22.554688 81.949219 22.554688 C 83.867188 22.554688 85.378906 22.171875 85.710938 21.574219 C 85.875 21.238281 85.972656 21.261719 86.398438 21.691406 C 86.824219 22.125 88.691406 22.699219 89.707031 22.699219 C 90.675781 22.699219 92.828125 21.957031 94.460938 21.046875 C 95.433594 20.496094 96.257812 20.089844 96.308594 20.136719 C 96.332031 20.183594 96.210938 20.757812 96.023438 21.40625 C 95.832031 22.050781 95.667969 22.601562 95.667969 22.625 C 95.667969 22.675781 96.332031 22.699219 97.160156 22.699219 C 98.601562 22.699219 98.742188 22.652344 100.683594 21.261719 L 102.691406 19.847656 L 103.449219 17.023438 C 104.964844 11.398438 104.796875 11.804688 106.050781 10.992188 C 107.019531 10.34375 107.210938 10.105469 107.472656 9.003906 C 107.660156 8.308594 107.847656 7.589844 107.898438 7.449219 C 108.0625 7.039062 100.636719 6.992188 100.234375 7.398438 C 100.019531 7.617188 99.664062 7.542969 98.863281 7.136719 C 97.960938 6.707031 97.488281 6.609375 96.285156 6.707031 C 94.746094 6.847656 93.253906 7.472656 92.5 8.308594 L 92.050781 8.8125 L 91.789062 8.285156 C 91.316406 7.351562 90.371094 6.847656 88.785156 6.730469 C 86.917969 6.585938 85.472656 6.945312 84.503906 7.832031 L 83.746094 8.523438 L 83.109375 7.832031 L 82.46875 7.136719 L 75.515625 7.136719 L 73.835938 8.980469 L 72.132812 10.800781 L 70.929688 15.253906 C 70.03125 18.53125 69.675781 19.539062 69.554688 19.105469 C 69.179688 17.550781 68.46875 13.71875 68.46875 13.265625 C 68.492188 12.976562 69.460938 11.636719 70.878906 10.007812 L 73.292969 7.257812 L 71.09375 7.183594 C 68.941406 7.113281 68.894531 7.136719 67.949219 7.878906 L 67 8.667969 L 67.167969 7.902344 L 67.332031 7.136719 L 65.441406 7.136719 C 64.070312 7.136719 63.476562 7.230469 63.265625 7.496094 C 63.003906 7.808594 62.910156 7.808594 62.484375 7.496094 C 62.082031 7.207031 61.160156 7.136719 58.25 7.136719 C 54.773438 7.136719 54.511719 7.160156 54.277344 7.617188 C 54.015625 8.09375 54.015625 8.09375 53.355469 7.589844 C 52.21875 6.753906 50.46875 6.488281 48.835938 6.921875 Z M 52.835938 7.808594 C 53.757812 8.476562 53.710938 9.457031 52.621094 13.503906 C 51.4375 17.886719 51.296875 18.292969 50.539062 18.890625 C 49.617188 19.609375 47.535156 20.136719 46.328125 19.945312 C 45.125 19.777344 43.871094 18.820312 43.871094 18.078125 C 43.871094 17.289062 45.878906 9.984375 46.328125 9.101562 C 46.707031 8.382812 47.558594 7.757812 48.835938 7.351562 C 49.808594 7.015625 52.148438 7.28125 52.835938 7.808594 Z M 90.15625 7.617188 C 90.84375 7.925781 91.199219 8.261719 91.316406 8.667969 C 91.410156 9.074219 91.054688 10.777344 90.324219 13.554688 C 89.304688 17.359375 89.117188 17.886719 88.335938 18.652344 C 87.25 19.777344 85.355469 20.257812 83.605469 19.824219 C 82.234375 19.488281 81.667969 18.914062 81.667969 17.863281 C 81.691406 17.429688 82.164062 15.300781 82.753906 13.121094 C 83.746094 9.507812 83.914062 9.101562 84.695312 8.40625 C 86.113281 7.136719 88.40625 6.800781 90.15625 7.617188 Z M 98.933594 7.78125 C 99.5 8.214844 99.570312 8.429688 99.546875 9.648438 C 99.523438 10.390625 99.429688 11.085938 99.3125 11.207031 C 99.191406 11.328125 98.53125 11.445312 97.820312 11.46875 L 96.519531 11.542969 L 96.519531 10.609375 C 96.496094 9.578125 95.976562 9.21875 95.3125 9.769531 C 94.699219 10.296875 94.933594 10.96875 96.234375 12.355469 C 97.796875 14.03125 98.035156 14.488281 98.035156 15.753906 C 98.035156 17.289062 97.230469 18.53125 95.808594 19.226562 C 94.203125 19.992188 93.113281 20.160156 91.859375 19.824219 C 90.015625 19.324219 89.660156 18.554688 90.253906 16.425781 L 90.488281 15.515625 L 93.207031 15.515625 L 93.113281 16.472656 C 93.019531 17.382812 93.042969 17.429688 93.707031 17.429688 C 95.21875 17.429688 95.382812 16.210938 94.035156 14.726562 C 92.640625 13.195312 91.882812 11.925781 91.882812 11.160156 C 91.882812 10.25 92.6875 8.667969 93.421875 8.191406 C 95.148438 7.039062 97.726562 6.847656 98.933594 7.78125 Z M 11.820312 9.722656 C 12.128906 13.816406 12.222656 13.863281 13.121094 10.535156 L 13.902344 7.617188 L 16.386719 7.617188 L 15.699219 10.175781 C 15.320312 11.613281 14.613281 14.246094 14.117188 16.042969 L 13.242188 19.347656 L 10.355469 19.347656 L 10.210938 18.199219 C 10.117188 17.574219 10 16.234375 9.90625 15.203125 C 9.8125 14.175781 9.667969 13.3125 9.597656 13.242188 C 9.503906 13.195312 9.078125 14.558594 8.628906 16.257812 L 7.824219 19.347656 L 6.546875 19.347656 C 5.625 19.347656 5.292969 19.273438 5.363281 19.058594 C 5.433594 18.890625 6.144531 16.234375 6.972656 13.167969 L 8.460938 7.617188 L 11.65625 7.617188 Z M 26.273438 8.140625 C 26.203125 8.453125 26.105469 9.722656 26.035156 10.96875 L 25.894531 13.242188 L 27.3125 10.417969 L 28.734375 7.617188 L 30.933594 7.617188 L 30.789062 10.417969 L 30.648438 13.242188 L 31.996094 10.417969 L 33.320312 7.617188 L 34.714844 7.617188 C 35.734375 7.617188 36.089844 7.6875 35.992188 7.902344 C 35.945312 8.070312 34.738281 10.726562 33.320312 13.769531 L 30.765625 19.347656 L 27.953125 19.347656 L 28.09375 16.402344 L 28.234375 13.480469 L 26.839844 16.402344 L 25.445312 19.347656 L 22.558594 19.347656 L 22.703125 18.199219 C 22.867188 16.640625 23.292969 11.0625 23.292969 10.34375 C 23.292969 9.792969 23.246094 9.769531 21.425781 9.769531 L 19.554688 9.769531 L 19.296875 10.824219 C 18.894531 12.425781 18.894531 12.402344 20.574219 12.402344 C 21.425781 12.402344 22.109375 12.476562 22.109375 12.570312 C 22.109375 12.691406 21.992188 13.167969 21.851562 13.648438 L 21.613281 14.558594 L 18.347656 14.558594 L 17.972656 15.804688 C 17.78125 16.472656 17.617188 17.070312 17.617188 17.121094 C 17.617188 17.167969 18.371094 17.191406 19.296875 17.191406 C 20.808594 17.191406 20.949219 17.238281 20.808594 17.621094 C 20.738281 17.839844 20.597656 18.316406 20.523438 18.675781 L 20.40625 19.347656 L 17.355469 19.347656 C 15.675781 19.347656 14.304688 19.273438 14.304688 19.203125 C 14.304688 19.011719 16.835938 9.433594 17.167969 8.382812 L 17.425781 7.617188 L 26.367188 7.617188 Z M 40.9375 8.742188 C 41.007812 9.386719 41.148438 10.296875 41.246094 10.824219 L 41.386719 11.757812 L 42.757812 9.675781 L 44.105469 7.617188 L 45.289062 7.617188 C 45.953125 7.617188 46.472656 7.6875 46.472656 7.757812 C 46.472656 7.832031 45.453125 9.410156 44.226562 11.230469 C 42.167969 14.296875 41.90625 14.773438 41.316406 16.953125 L 40.675781 19.347656 L 39.328125 19.347656 C 38.570312 19.347656 37.957031 19.273438 37.957031 19.203125 C 37.957031 19.105469 38.242188 18.03125 38.570312 16.808594 L 39.164062 14.535156 L 38.714844 11.085938 L 38.265625 7.617188 L 40.773438 7.617188 Z M 62.34375 8.09375 C 62.863281 8.90625 62.082031 11.949219 61.089844 12.976562 C 60.6875 13.386719 60.472656 13.746094 60.640625 13.792969 C 61.042969 13.9375 60.945312 14.941406 60.332031 17.191406 L 59.789062 19.226562 L 58.25 19.296875 L 56.691406 19.371094 L 57.28125 17.289062 C 57.589844 16.136719 57.800781 15.0625 57.730469 14.894531 C 57.660156 14.703125 57.257812 14.558594 56.808594 14.558594 L 56.027344 14.558594 L 55.460938 16.738281 C 55.128906 17.910156 54.820312 19.011719 54.726562 19.132812 C 54.65625 19.273438 54.015625 19.347656 53.285156 19.296875 L 52.007812 19.226562 L 53.542969 13.410156 L 55.105469 7.589844 L 58.605469 7.664062 C 61.394531 7.710938 62.152344 7.808594 62.34375 8.09375 Z M 66.574219 7.808594 C 66.574219 7.902344 66.363281 8.789062 66.101562 9.746094 C 65.820312 10.703125 65.652344 11.542969 65.675781 11.566406 C 65.726562 11.613281 66.503906 10.75 67.402344 9.648438 L 69.058594 7.640625 L 70.550781 7.640625 C 71.355469 7.617188 72.015625 7.6875 72.015625 7.757812 C 72.015625 7.832031 71.070312 9.003906 69.886719 10.367188 L 67.757812 12.835938 L 68.351562 15.753906 C 68.679688 17.382812 68.941406 18.84375 68.941406 19.011719 C 68.941406 19.25 68.539062 19.347656 67.453125 19.347656 L 65.9375 19.347656 L 65.511719 16.953125 C 65.273438 15.636719 65.015625 14.558594 64.921875 14.558594 C 64.847656 14.558594 64.519531 15.515625 64.234375 16.664062 C 63.925781 17.839844 63.621094 18.914062 63.523438 19.082031 C 63.40625 19.273438 62.863281 19.347656 62.035156 19.296875 L 60.734375 19.226562 L 62.296875 13.410156 L 63.855469 7.617188 L 65.203125 7.617188 C 65.960938 7.617188 66.574219 7.6875 66.574219 7.808594 Z M 82.398438 8 C 82.871094 8.359375 82.945312 8.550781 82.847656 9.625 C 82.683594 11.492188 81.785156 14.175781 81.121094 14.84375 C 80.460938 15.539062 79.632812 15.753906 77.8125 15.753906 C 76.414062 15.753906 76.488281 15.660156 75.800781 18.316406 L 75.539062 19.347656 L 74.121094 19.347656 C 73.058594 19.347656 72.703125 19.273438 72.773438 19.058594 C 72.84375 18.890625 73.554688 16.234375 74.382812 13.167969 L 75.871094 7.617188 L 78.851562 7.617188 C 81.242188 7.617188 81.949219 7.6875 82.398438 8 Z M 107.257812 7.78125 C 107.257812 7.902344 107.140625 8.382812 106.996094 8.859375 C 106.785156 9.722656 106.714844 9.769531 105.839844 9.769531 C 104.773438 9.769531 105.058594 9.101562 103.285156 15.707031 C 102.765625 17.597656 102.289062 19.179688 102.21875 19.25 C 102.171875 19.324219 101.535156 19.347656 100.824219 19.296875 L 99.523438 19.226562 L 100.777344 14.558594 C 101.488281 11.996094 102.054688 9.867188 102.054688 9.816406 C 102.054688 9.792969 101.628906 9.769531 101.085938 9.769531 C 100.257812 9.769531 100.136719 9.699219 100.28125 9.339844 C 100.351562 9.125 100.492188 8.644531 100.5625 8.261719 L 100.707031 7.617188 L 103.96875 7.617188 C 105.792969 7.617188 107.257812 7.6875 107.257812 7.78125 Z M 107.257812 7.78125 " fill-opacity="1" fill-rule="nonzero"/></g><path fill="#9e9f9e" d="M 49.027344 9.9375 C 48.695312 10.320312 46.945312 16.28125 46.945312 17.046875 C 46.945312 17.550781 47.679688 17.71875 48.246094 17.335938 C 48.648438 17.070312 48.980469 16.210938 49.640625 13.769531 C 50.136719 11.996094 50.492188 10.34375 50.445312 10.082031 C 50.351562 9.507812 49.5 9.410156 49.027344 9.9375 Z M 49.027344 9.9375 " fill-opacity="1" fill-rule="nonzero"/><path fill="#9e9f9e" d="M 86.871094 9.816406 C 86.421875 10.175781 84.71875 16.234375 84.835938 17.023438 C 84.929688 17.695312 85.59375 17.8125 86.136719 17.261719 C 86.632812 16.761719 88.429688 10.390625 88.242188 9.867188 C 88.074219 9.457031 87.367188 9.433594 86.871094 9.816406 Z M 86.871094 9.816406 " fill-opacity="1" fill-rule="nonzero"/><path fill="#9e9f9e" d="M 56.996094 11.015625 C 56.523438 12.644531 56.523438 12.644531 57.328125 12.644531 C 58.34375 12.644531 59.007812 11.972656 59.171875 10.777344 L 59.316406 9.769531 L 58.34375 9.769531 C 57.375 9.769531 57.375 9.769531 56.996094 11.015625 Z M 56.996094 11.015625 " fill-opacity="1" fill-rule="nonzero"/><path fill="#9e9f9e" d="M 78.046875 10.058594 C 77.714844 11.0625 77.21875 13.027344 77.21875 13.289062 C 77.21875 13.695312 78.734375 13.695312 79.066406 13.289062 C 79.371094 12.90625 80.058594 10.226562 79.914062 9.960938 C 79.726562 9.648438 78.164062 9.746094 78.046875 10.058594 Z M 78.046875 10.058594 " fill-opacity="1" fill-rule="nonzero"/></svg>