<svg xmlns="http://www.w3.org/2000/svg" xmlns:xlink="http://www.w3.org/1999/xlink" width="146" zoomAndPan="magnify" viewBox="0 0 109.5 30.000001" height="40" preserveAspectRatio="xMidYMid meet" version="1.0"><defs><clipPath id="fb05424537"><path d="M 98 7 L 107.492188 7 L 107.492188 21 L 98 21 Z M 98 7 " clip-rule="nonzero"/></clipPath><clipPath id="c4ccf76276"><path d="M 2.035156 4.597656 L 22 4.597656 L 22 24.285156 L 2.035156 24.285156 Z M 2.035156 4.597656 " clip-rule="nonzero"/></clipPath></defs><path fill="#9e9f9e" d="M 31.613281 18.523438 C 29.664062 18.523438 28.457031 16.800781 28.457031 14.421875 C 28.457031 12.0625 29.472656 10.308594 31.601562 10.308594 C 33 10.308594 33.921875 11.191406 34.089844 12.359375 L 37.34375 12.359375 C 37.175781 10.910156 36.515625 9.636719 35.371094 8.789062 C 34.4375 8.082031 33.144531 7.644531 31.613281 7.644531 C 27.691406 7.644531 25.144531 10.566406 25.144531 14.421875 C 25.144531 18.296875 27.777344 21.136719 31.640625 21.136719 C 33.492188 21.136719 34.84375 20.632812 35.847656 19.664062 C 36.746094 18.816406 37.34375 17.636719 37.425781 16.355469 L 34.171875 16.355469 C 34.03125 17.613281 33.074219 18.523438 31.613281 18.523438 Z M 31.613281 18.523438 " fill-opacity="1" fill-rule="nonzero"/><path fill="#9e9f9e" d="M 43.429688 11.332031 C 40.414062 11.332031 38.394531 13.453125 38.394531 16.246094 C 38.394531 19.039062 40.414062 21.160156 43.429688 21.160156 C 46.464844 21.160156 48.449219 19.039062 48.449219 16.246094 C 48.449219 13.453125 46.464844 11.332031 43.429688 11.332031 Z M 43.417969 19.050781 C 42.113281 19.050781 41.433594 17.933594 41.433594 16.246094 C 41.433594 14.5625 42.113281 13.417969 43.417969 13.417969 C 44.71875 13.417969 45.425781 14.5625 45.425781 16.246094 C 45.414062 17.933594 44.71875 19.050781 43.417969 19.050781 Z M 43.417969 19.050781 " fill-opacity="1" fill-rule="nonzero"/><path fill="#9e9f9e" d="M 52.707031 10.347656 C 53.34375 9.71875 53.34375 8.695312 52.707031 8.066406 C 52.066406 7.433594 51.027344 7.433594 50.386719 8.066406 C 49.75 8.695312 49.75 9.71875 50.386719 10.347656 C 51.027344 10.976562 52.066406 10.976562 52.707031 10.347656 Z M 52.707031 10.347656 " fill-opacity="1" fill-rule="nonzero"/><path fill="#9e9f9e" d="M 48.941406 13.667969 L 50.195312 13.667969 L 50.195312 20.867188 L 53.1875 20.867188 L 53.1875 11.582031 L 48.941406 11.582031 Z M 48.941406 13.667969 " fill-opacity="1" fill-rule="nonzero"/><path fill="#9e9f9e" d="M 60.539062 11.308594 C 59.238281 11.308594 58.328125 11.851562 57.632812 12.855469 L 57.574219 12.855469 L 57.574219 11.582031 L 54.691406 11.582031 L 54.691406 20.855469 L 57.695312 20.855469 L 57.695312 15.730469 C 57.695312 14.585938 58.351562 13.773438 59.34375 13.773438 C 60.324219 13.773438 60.816406 14.445312 60.816406 15.421875 L 60.816406 20.855469 L 63.816406 20.855469 L 63.816406 14.820312 C 63.816406 12.757812 62.597656 11.308594 60.539062 11.308594 Z M 60.539062 11.308594 " fill-opacity="1" fill-rule="nonzero"/><path fill="#9e9f9e" d="M 70.847656 7.90625 L 65.238281 7.90625 L 65.238281 20.855469 L 70.644531 20.855469 C 72.292969 20.855469 73.621094 20.441406 74.648438 19.675781 C 76.121094 18.570312 76.933594 16.742188 76.933594 14.457031 C 76.933594 10.496094 74.480469 7.90625 70.847656 7.90625 Z M 70.40625 18.167969 L 68.492188 18.167969 L 68.492188 10.589844 L 70.441406 10.589844 C 72.484375 10.589844 73.644531 12.113281 73.644531 14.46875 C 73.632812 16.835938 72.535156 18.167969 70.40625 18.167969 Z M 70.40625 18.167969 " fill-opacity="1" fill-rule="nonzero"/><path fill="#9e9f9e" d="M 85.816406 12.535156 C 85.003906 11.816406 83.941406 11.382812 82.601562 11.382812 C 79.730469 11.382812 77.769531 13.503906 77.769531 16.269531 C 77.769531 19.074219 79.683594 21.195312 82.792969 21.195312 C 83.988281 21.195312 84.945312 20.890625 85.734375 20.347656 C 86.558594 19.78125 87.109375 18.992188 87.3125 18.15625 L 84.394531 18.15625 C 84.132812 18.734375 83.617188 19.074219 82.828125 19.074219 C 81.597656 19.074219 80.902344 18.296875 80.710938 17.050781 L 87.480469 17.050781 C 87.492188 15.152344 86.941406 13.550781 85.816406 12.535156 Z M 80.722656 15.28125 C 80.925781 14.171875 81.511719 13.464844 82.648438 13.464844 C 83.617188 13.464844 84.324219 14.171875 84.429688 15.28125 Z M 80.722656 15.28125 " fill-opacity="1" fill-rule="nonzero"/><path fill="#9e9f9e" d="M 93.386719 15.058594 C 92.191406 14.84375 91.128906 14.75 91.128906 14.101562 C 91.128906 13.527344 91.699219 13.253906 92.429688 13.253906 C 93.253906 13.253906 93.828125 13.515625 93.9375 14.339844 L 96.699219 14.339844 C 96.554688 12.511719 95.121094 11.371094 92.453125 11.371094 C 90.230469 11.371094 88.390625 12.382812 88.390625 14.339844 C 88.390625 16.519531 90.132812 16.941406 91.773438 17.214844 C 93.027344 17.425781 94.164062 17.519531 94.164062 18.355469 C 94.164062 18.957031 93.589844 19.277344 92.695312 19.277344 C 91.699219 19.277344 91.078125 18.828125 90.960938 17.898438 L 88.125 17.898438 C 88.222656 19.949219 89.941406 21.195312 92.707031 21.195312 C 95.167969 21.195312 96.984375 20.148438 96.984375 18.121094 C 97 15.753906 95.050781 15.328125 93.386719 15.058594 Z M 93.386719 15.058594 " fill-opacity="1" fill-rule="nonzero"/><g clip-path="url(#fb05424537)"><path fill="#9e9f9e" d="M 104.042969 15.070312 L 107.351562 11.582031 L 103.898438 11.582031 L 101.101562 14.714844 L 101.101562 7.90625 L 98.144531 7.90625 L 98.144531 20.867188 L 101.101562 20.867188 L 101.101562 18.015625 L 102.007812 17.074219 L 104.269531 20.867188 L 107.734375 20.867188 Z M 104.042969 15.070312 " fill-opacity="1" fill-rule="nonzero"/></g><path fill="#666666" d="M 11.96875 15.28125 C 12.46875 15.28125 12.878906 14.878906 12.878906 14.386719 C 12.878906 13.890625 12.46875 13.492188 11.96875 13.492188 C 11.464844 13.492188 11.058594 13.890625 11.058594 14.386719 C 11.058594 14.878906 11.464844 15.28125 11.96875 15.28125 Z M 11.96875 15.28125 " fill-opacity="1" fill-rule="nonzero"/><path fill="#666666" d="M 19.214844 15.28125 C 19.71875 15.28125 20.125 14.878906 20.125 14.386719 C 20.125 13.890625 19.71875 13.492188 19.214844 13.492188 C 18.714844 13.492188 18.304688 13.890625 18.304688 14.386719 C 18.304688 14.878906 18.714844 15.28125 19.214844 15.28125 Z M 19.214844 15.28125 " fill-opacity="1" fill-rule="nonzero"/><path fill="#666666" d="M 19.214844 22.433594 C 19.71875 22.433594 20.125 22.035156 20.125 21.539062 C 20.125 21.042969 19.71875 20.644531 19.214844 20.644531 C 18.714844 20.644531 18.304688 21.042969 18.304688 21.539062 C 18.304688 22.035156 18.714844 22.433594 19.214844 22.433594 Z M 19.214844 22.433594 " fill-opacity="1" fill-rule="nonzero"/><g clip-path="url(#c4ccf76276)"><path fill="#666666" d="M 21.882812 7.066406 C 21.785156 5.761719 20.722656 4.699219 19.394531 4.605469 C 18.546875 4.546875 17.78125 4.863281 17.242188 5.40625 C 16.835938 5.820312 16.285156 6.066406 15.699219 6.066406 L 15.484375 6.066406 C 14.886719 6.066406 14.324219 5.820312 13.90625 5.394531 C 13.414062 4.898438 12.734375 4.605469 11.980469 4.605469 C 11.226562 4.605469 10.546875 4.910156 10.054688 5.394531 C 9.636719 5.820312 9.074219 6.066406 8.476562 6.066406 L 8.273438 6.066406 C 7.6875 6.066406 7.125 5.84375 6.71875 5.429688 C 6.636719 5.347656 6.550781 5.265625 6.46875 5.195312 C 5.453125 4.382812 3.957031 4.40625 2.976562 5.265625 C 1.792969 6.289062 1.746094 8.082031 2.84375 9.164062 C 2.855469 9.175781 2.867188 9.1875 2.882812 9.199219 C 3.3125 9.601562 3.539062 10.167969 3.539062 10.746094 L 3.539062 10.945312 C 3.539062 11.535156 3.289062 12.089844 2.855469 12.5 C 2.355469 12.984375 2.054688 13.65625 2.054688 14.398438 C 2.054688 15.140625 2.367188 15.8125 2.855469 16.292969 C 3.289062 16.707031 3.539062 17.261719 3.539062 17.851562 L 3.539062 18.121094 C 3.539062 18.699219 3.289062 19.242188 2.867188 19.640625 C 2.34375 20.148438 2.019531 20.867188 2.054688 21.65625 C 2.117188 23.046875 3.261719 24.167969 4.664062 24.214844 C 5.476562 24.238281 6.207031 23.917969 6.71875 23.390625 C 7.125 22.976562 7.675781 22.71875 8.261719 22.71875 L 8.488281 22.71875 C 9.074219 22.71875 9.625 22.964844 10.03125 23.390625 C 10.570312 23.941406 11.347656 24.261719 12.195312 24.203125 C 13.523438 24.109375 14.597656 23.046875 14.695312 21.726562 C 14.800781 20.160156 13.558594 18.863281 11.992188 18.863281 C 11.25 18.863281 10.570312 19.160156 10.078125 19.640625 C 9.660156 20.054688 9.097656 20.300781 8.511719 20.300781 L 8.261719 20.300781 C 7.675781 20.300781 7.101562 20.078125 6.683594 19.652344 C 6.671875 19.640625 6.671875 19.640625 6.660156 19.628906 C 6.230469 19.21875 5.976562 18.664062 5.976562 18.074219 L 5.976562 17.839844 C 5.976562 17.25 6.230469 16.695312 6.660156 16.28125 C 7.160156 15.800781 7.460938 15.128906 7.460938 14.386719 C 7.460938 13.644531 7.148438 12.972656 6.660156 12.488281 C 6.230469 12.078125 5.976562 11.523438 5.976562 10.933594 L 5.976562 10.722656 C 5.976562 10.132812 6.230469 9.578125 6.648438 9.164062 C 6.660156 9.152344 6.660156 9.152344 6.671875 9.140625 C 6.683594 9.128906 6.683594 9.128906 6.695312 9.117188 C 7.113281 8.707031 7.675781 8.457031 8.273438 8.457031 L 8.488281 8.457031 C 9.085938 8.457031 9.648438 8.707031 10.066406 9.128906 C 10.558594 9.625 11.238281 9.917969 11.992188 9.917969 C 12.746094 9.917969 13.425781 9.613281 13.917969 9.128906 C 14.335938 8.707031 14.898438 8.457031 15.496094 8.457031 L 15.6875 8.457031 C 16.285156 8.457031 16.847656 8.707031 17.265625 9.128906 C 17.757812 9.625 18.4375 9.917969 19.191406 9.917969 C 20.746094 9.929688 21.988281 8.636719 21.882812 7.066406 Z M 21.882812 7.066406 " fill-opacity="1" fill-rule="nonzero"/></g></svg>