<svg xmlns="http://www.w3.org/2000/svg" xmlns:xlink="http://www.w3.org/1999/xlink" width="146" zoomAndPan="magnify" viewBox="0 0 109.5 30.000001" height="40" preserveAspectRatio="xMidYMid meet" version="1.0"><path fill="#9e9f9e" d="M 100.941406 9.339844 L 100.8125 9.921875 L 99.609375 10.246094 C 99.351562 10.34375 99.144531 10.503906 98.984375 10.726562 L 93.445312 17.691406 L 91.378906 24.496094 C 91.269531 24.851562 91.410156 25.058594 91.644531 25.117188 L 93.089844 25.46875 L 92.894531 26.050781 L 85.691406 26.050781 L 85.882812 25.46875 L 87.234375 25.148438 C 87.414062 25.109375 87.566406 25.027344 87.691406 24.898438 C 87.816406 24.769531 87.894531 24.613281 87.921875 24.433594 L 89.984375 17.542969 L 88.175781 10.808594 C 88.097656 10.484375 87.996094 10.226562 87.660156 10.128906 L 86.8125 9.898438 L 86.941406 9.316406 L 93.089844 9.316406 L 92.957031 9.898438 L 91.917969 10.1875 C 91.542969 10.289062 91.460938 10.480469 91.5625 10.808594 L 93.039062 16.519531 L 97.402344 10.738281 C 97.476562 10.644531 97.519531 10.539062 97.53125 10.417969 C 97.515625 10.261719 97.429688 10.175781 97.269531 10.160156 L 96.097656 9.867188 L 96.261719 9.285156 Z M 100.941406 9.339844 " fill-opacity="1" fill-rule="nonzero"/><path fill="#9e9f9e" d="M 86.613281 13.152344 L 85.777344 13.152344 L 85.058594 10.976562 C 85.03125 10.804688 84.949219 10.671875 84.808594 10.570312 C 84.667969 10.46875 84.515625 10.433594 84.34375 10.460938 L 82.535156 10.460938 L 78.308594 24.523438 C 78.199219 24.875 78.308594 25.085938 78.632812 25.140625 L 79.804688 25.460938 L 79.613281 26.042969 L 72.570312 26.042969 L 72.761719 25.460938 L 74.007812 25.171875 C 74.5625 25.042969 74.675781 24.878906 74.820312 24.398438 L 79.015625 10.429688 L 76.914062 10.429688 C 76.566406 10.457031 76.308594 10.617188 76.132812 10.914062 L 74.675781 12.980469 L 73.867188 12.980469 L 75.179688 8.921875 L 75.699219 8.921875 C 75.742188 9.050781 75.824219 9.15625 75.9375 9.234375 C 76.054688 9.3125 76.179688 9.347656 76.320312 9.339844 L 85.117188 9.339844 C 85.289062 9.367188 85.453125 9.339844 85.605469 9.265625 C 85.761719 9.1875 85.882812 9.074219 85.964844 8.921875 L 86.519531 8.921875 Z M 73.558594 12.941406 L 72.75 12.941406 L 71.96875 10.859375 C 71.925781 10.726562 71.847656 10.621094 71.730469 10.542969 C 71.613281 10.464844 71.488281 10.429688 71.347656 10.4375 L 67.980469 10.4375 L 66.078125 16.796875 L 69.253906 16.796875 C 69.578125 16.796875 69.769531 16.636719 70 16.316406 L 70.878906 15.039062 L 71.691406 15.039062 L 70.195312 20.109375 L 69.382812 20.109375 L 69.414062 18.316406 C 69.414062 17.992188 69.222656 17.894531 68.898438 17.894531 L 65.78125 17.894531 L 63.636719 24.925781 L 68.253906 24.925781 C 68.484375 24.957031 68.703125 24.929688 68.917969 24.835938 C 69.128906 24.742188 69.300781 24.601562 69.425781 24.410156 L 71.265625 22.132812 L 72.144531 22.132812 L 70.273438 26.527344 L 69.6875 26.527344 C 69.527344 26.203125 69.296875 26.074219 68.710938 26.074219 L 58.113281 26.074219 L 58.308594 25.492188 L 59.554688 25.171875 C 59.917969 25.066406 60.125 24.832031 60.175781 24.460938 L 64.242188 10.84375 C 64.289062 10.742188 64.296875 10.636719 64.257812 10.53125 C 64.222656 10.421875 64.152344 10.34375 64.046875 10.292969 L 62.90625 9.941406 L 63.070312 9.359375 L 72.207031 9.359375 C 72.539062 9.375 72.777344 9.234375 72.925781 8.9375 L 73.441406 8.9375 Z M 73.558594 12.941406 " fill-opacity="1" fill-rule="nonzero"/><path fill="#9e9f9e" d="M 100.773438 4.933594 C 92.507812 6.6875 84.148438 7.5625 75.699219 7.566406 C 55.75 7.566406 41.726562 4.867188 35.804688 3.460938 L 10.851562 26.953125 L 8.820312 27.214844 L 16.15625 5.046875 C 13.933594 5.933594 11.628906 6.515625 9.246094 6.792969 C 8.679688 6.855469 8.660156 6.53125 8.921875 6.390625 C 9.703125 6.007812 10.378906 5.488281 10.953125 4.835938 C 11.527344 4.183594 11.949219 3.449219 12.226562 2.625 C 15.820312 3.5 18.53125 2.820312 21.816406 1.625 L 15.199219 20.269531 L 32.875 1.222656 C 43.578125 3.429688 54.394531 4.550781 65.324219 4.59375 C 73.925781 4.59375 81.46875 3.253906 85.359375 1.675781 C 90.824219 4.902344 97.066406 4.625 100.644531 4.402344 C 101.160156 4.371094 101.230469 4.855469 100.773438 4.953125 " fill-opacity="1" fill-rule="nonzero"/><path fill="#9e9f9e" d="M 62.320312 9.339844 L 62.160156 9.921875 L 60.777344 10.3125 C 60.496094 10.394531 60.335938 10.578125 60.289062 10.863281 L 56.226562 24.375 C 56.113281 24.777344 56.011719 25.035156 56.519531 25.175781 L 57.496094 25.46875 L 57.304688 26.050781 L 50.789062 26.050781 L 50.984375 25.46875 L 51.925781 25.175781 C 52.460938 25.015625 52.621094 24.824219 52.734375 24.402344 L 56.765625 10.828125 C 56.847656 10.535156 56.765625 10.34375 56.535156 10.277344 L 55.464844 9.921875 L 55.625 9.339844 Z M 52.617188 13.476562 C 52.617188 16.011719 50.585938 18.222656 47.28125 18.09375 C 46.636719 18.070312 46 17.972656 45.378906 17.800781 C 45.378906 20.894531 46.339844 24.0625 48.191406 24.0625 C 49.332031 24.0625 49.667969 23.109375 49.828125 22.304688 C 49.859375 22.175781 49.960938 22.078125 50.121094 22.246094 C 50.679688 22.78125 50.949219 23.429688 50.933594 24.199219 C 50.933594 26.105469 49.6875 26.960938 47.890625 26.960938 C 43.261719 26.960938 43.046875 20.339844 43.796875 16.273438 C 43.847656 16.042969 43.925781 16.011719 44.089844 16.113281 C 44.777344 16.511719 45.519531 16.695312 46.3125 16.664062 C 47.808594 16.664062 49.226562 15.488281 49.226562 13.351562 C 49.226562 11.214844 47.441406 9.886719 44.804688 9.886719 L 40.441406 24.429688 C 40.402344 24.542969 40.382812 24.660156 40.378906 24.78125 C 40.371094 24.871094 40.394531 24.949219 40.453125 25.019531 C 40.511719 25.085938 40.582031 25.125 40.671875 25.132812 L 41.917969 25.457031 L 41.726562 26.039062 L 35.230469 26.039062 L 35.425781 25.457031 L 36.402344 25.164062 C 36.714844 25.066406 36.839844 24.894531 36.988281 24.421875 L 41.308594 9.886719 C 39.4375 10.277344 38.527344 10.96875 38.527344 12.035156 C 38.5 12.460938 38.605469 12.847656 38.851562 13.195312 C 38.917969 13.292969 38.953125 13.402344 38.953125 13.519531 C 38.953125 13.761719 38.742188 13.96875 38.140625 13.96875 C 37.882812 13.988281 37.632812 13.949219 37.390625 13.859375 C 37.148438 13.765625 36.9375 13.628906 36.757812 13.441406 C 36.578125 13.257812 36.445312 13.042969 36.359375 12.800781 C 36.277344 12.558594 36.246094 12.308594 36.273438 12.050781 C 36.273438 11.246094 36.777344 8.519531 43.933594 8.519531 C 50 8.519531 52.617188 10.472656 52.617188 13.46875 " fill-opacity="1" fill-rule="nonzero"/><path fill="#9e9f9e" d="M 31.605469 12.300781 L 24.890625 20.511719 L 30.84375 20.511719 Z M 35.070312 25.488281 L 34.875 26.070312 L 28.722656 26.070312 L 28.917969 25.488281 L 29.988281 25.195312 C 30.132812 25.164062 30.253906 25.089844 30.34375 24.972656 C 30.433594 24.855469 30.480469 24.726562 30.476562 24.578125 L 30.738281 21.75 L 23.832031 21.75 L 21.574219 24.453125 C 21.453125 24.570312 21.375 24.710938 21.34375 24.875 C 21.34375 25.015625 21.425781 25.117188 21.605469 25.164062 L 22.648438 25.488281 L 22.453125 26.070312 L 17.28125 26.070312 L 17.511719 25.488281 L 18.582031 25.226562 C 19.003906 25.097656 19.351562 24.859375 19.625 24.515625 L 33.585938 8.214844 L 35.03125 7.957031 L 33.6875 24.582031 C 33.65625 24.9375 33.6875 25.164062 34.109375 25.265625 Z M 35.070312 25.488281 " fill-opacity="1" fill-rule="nonzero"/></svg>