<svg xmlns="http://www.w3.org/2000/svg" xmlns:xlink="http://www.w3.org/1999/xlink" width="100" zoomAndPan="magnify" viewBox="0 0 75 30.000001" height="40" preserveAspectRatio="xMidYMid meet" version="1.0"><defs><clipPath id="b5ad3cf702"><path d="M 3.246094 9 L 17 9 L 17 23.953125 L 3.246094 23.953125 Z M 3.246094 9 " clip-rule="nonzero"/></clipPath><clipPath id="88bddf5717"><path d="M 27 5.082031 L 38 5.082031 L 38 21 L 27 21 Z M 27 5.082031 " clip-rule="nonzero"/></clipPath><clipPath id="09c9af0a1c"><path d="M 62 5.082031 L 71.472656 5.082031 L 71.472656 15 L 62 15 Z M 62 5.082031 " clip-rule="nonzero"/></clipPath></defs><g clip-path="url(#b5ad3cf702)"><path fill="#9e9f9e" d="M 3.472656 9.675781 L 7.503906 9.675781 L 9.851562 15.707031 L 12.230469 9.675781 L 16.15625 9.675781 L 10.246094 23.953125 L 6.292969 23.953125 L 7.910156 20.167969 Z M 3.472656 9.675781 " fill-opacity="1" fill-rule="nonzero"/></g><path fill="#9e9f9e" d="M 20.246094 9.433594 C 17.214844 9.433594 15.300781 12.164062 15.300781 14.878906 C 15.300781 17.9375 17.402344 20.359375 20.1875 20.359375 C 22.269531 20.359375 23.050781 19.085938 23.050781 19.085938 L 23.050781 20.078125 L 26.570312 20.078125 L 26.570312 9.675781 L 23.050781 9.675781 L 23.050781 10.621094 C 23.050781 10.621094 22.175781 9.433594 20.246094 9.433594 Z M 20.996094 12.777344 C 22.390625 12.777344 23.113281 13.886719 23.113281 14.890625 C 23.113281 15.96875 22.339844 17.027344 20.996094 17.027344 C 19.878906 17.027344 18.871094 16.113281 18.871094 14.9375 C 18.871094 13.742188 19.679688 12.777344 20.996094 12.777344 Z M 20.996094 12.777344 " fill-opacity="1" fill-rule="nonzero"/><g clip-path="url(#88bddf5717)"><path fill="#9e9f9e" d="M 27.78125 20.078125 L 27.78125 5.082031 L 31.457031 5.082031 L 31.457031 10.65625 C 31.457031 10.65625 32.332031 9.433594 34.164062 9.433594 C 36.402344 9.433594 37.710938 11.109375 37.710938 13.503906 L 37.710938 20.078125 L 34.058594 20.078125 L 34.058594 14.402344 C 34.058594 13.59375 33.675781 12.8125 32.804688 12.8125 C 31.921875 12.8125 31.457031 13.605469 31.457031 14.402344 L 31.457031 20.078125 Z M 27.78125 20.078125 " fill-opacity="1" fill-rule="nonzero"/></g><path fill="#9e9f9e" d="M 43.984375 9.433594 C 40.515625 9.433594 38.449219 12.085938 38.449219 14.921875 C 38.449219 18.152344 40.949219 20.359375 43.996094 20.359375 C 46.949219 20.359375 49.535156 18.25 49.535156 14.976562 C 49.535156 11.390625 46.828125 9.433594 43.984375 9.433594 Z M 44.015625 12.808594 C 45.242188 12.808594 46.089844 13.832031 46.089844 14.925781 C 46.089844 15.859375 45.300781 17.007812 44.015625 17.007812 C 42.839844 17.007812 41.957031 16.0625 41.957031 14.914062 C 41.957031 13.8125 42.691406 12.808594 44.015625 12.808594 Z M 44.015625 12.808594 " fill-opacity="1" fill-rule="nonzero"/><path fill="#9e9f9e" d="M 55.664062 9.433594 C 52.195312 9.433594 50.128906 12.085938 50.128906 14.921875 C 50.128906 18.152344 52.628906 20.359375 55.675781 20.359375 C 58.628906 20.359375 61.214844 18.25 61.214844 14.976562 C 61.214844 11.390625 58.507812 9.433594 55.664062 9.433594 Z M 55.695312 12.808594 C 56.921875 12.808594 57.769531 13.832031 57.769531 14.925781 C 57.769531 15.859375 56.980469 17.007812 55.695312 17.007812 C 54.519531 17.007812 53.636719 16.0625 53.636719 14.914062 C 53.636719 13.8125 54.371094 12.808594 55.695312 12.808594 Z M 55.695312 12.808594 " fill-opacity="1" fill-rule="nonzero"/><path fill="#9e9f9e" d="M 66.558594 17.847656 C 66.558594 18.171875 66.496094 18.484375 66.375 18.785156 C 66.25 19.085938 66.074219 19.351562 65.84375 19.582031 C 65.613281 19.8125 65.351562 19.988281 65.050781 20.113281 C 64.753906 20.238281 64.441406 20.300781 64.117188 20.300781 C 63.792969 20.300781 63.480469 20.238281 63.183594 20.113281 C 62.882812 19.988281 62.617188 19.8125 62.390625 19.582031 C 62.160156 19.351562 61.984375 19.085938 61.859375 18.785156 C 61.734375 18.484375 61.675781 18.171875 61.675781 17.847656 C 61.675781 17.523438 61.734375 17.207031 61.859375 16.910156 C 61.984375 16.609375 62.160156 16.34375 62.390625 16.113281 C 62.617188 15.882812 62.882812 15.707031 63.183594 15.582031 C 63.480469 15.457031 63.792969 15.394531 64.117188 15.394531 C 64.441406 15.394531 64.753906 15.457031 65.050781 15.582031 C 65.351562 15.707031 65.613281 15.882812 65.84375 16.113281 C 66.074219 16.34375 66.25 16.609375 66.375 16.910156 C 66.496094 17.207031 66.558594 17.523438 66.558594 17.847656 Z M 66.558594 17.847656 " fill-opacity="1" fill-rule="nonzero"/><g clip-path="url(#09c9af0a1c)"><path fill="#9e9f9e" d="M 67.363281 14.492188 L 62.964844 14.492188 L 66.867188 5.082031 L 71.25 5.082031 Z M 67.363281 14.492188 " fill-opacity="1" fill-rule="nonzero"/></g></svg>