<svg xmlns="http://www.w3.org/2000/svg" xmlns:xlink="http://www.w3.org/1999/xlink" width="100" zoomAndPan="magnify" viewBox="0 0 75 30.000001" height="40" preserveAspectRatio="xMidYMid meet" version="1.0"><path fill="#9e9f9e" d="M 39.699219 6.171875 L 37.023438 6.679688 L 37.023438 7.175781 L 37.367188 7.21875 C 37.789062 7.273438 37.941406 7.3125 38.101562 7.414062 C 38.242188 7.503906 38.308594 7.582031 38.394531 7.765625 C 38.546875 8.09375 38.632812 8.539062 38.667969 9.164062 C 38.738281 10.375 38.742188 10.851562 38.742188 15.089844 C 38.742188 19.785156 38.730469 21.082031 38.667969 22.152344 C 38.65625 22.378906 38.648438 22.566406 38.652344 22.570312 C 38.65625 22.574219 38.917969 22.628906 39.234375 22.691406 C 40.230469 22.890625 41.121094 23.027344 42.035156 23.113281 C 42.585938 23.167969 43.925781 23.167969 44.355469 23.113281 C 45.714844 22.945312 46.710938 22.574219 47.625 21.898438 C 47.949219 21.65625 48.527344 21.082031 48.773438 20.757812 C 49.5 19.792969 49.914062 18.695312 50.066406 17.320312 C 50.109375 16.9375 50.101562 15.75 50.054688 15.402344 C 49.867188 14.003906 49.363281 12.902344 48.503906 12.003906 C 47.050781 10.492188 45.007812 10.21875 42.644531 11.21875 C 42.46875 11.289062 42.316406 11.351562 42.308594 11.351562 C 42.289062 11.351562 42.3125 9.136719 42.339844 8.058594 C 42.363281 7.261719 42.417969 6.03125 42.4375 5.804688 C 42.449219 5.675781 42.445312 5.664062 42.414062 5.664062 C 42.390625 5.664062 41.167969 5.894531 39.699219 6.171875 Z M 43.839844 12.015625 C 44.339844 12.089844 44.707031 12.277344 45.070312 12.640625 C 45.320312 12.890625 45.503906 13.164062 45.707031 13.578125 C 46.128906 14.445312 46.304688 15.351562 46.304688 16.628906 C 46.304688 17.589844 46.214844 18.414062 46.023438 19.167969 C 45.632812 20.695312 44.945312 21.78125 44.117188 22.171875 C 43.742188 22.347656 43.46875 22.386719 43.082031 22.316406 C 42.945312 22.292969 42.738281 22.257812 42.621094 22.246094 L 42.40625 22.21875 L 42.394531 21.945312 C 42.367188 21.402344 42.34375 20.53125 42.332031 19.765625 C 42.324219 19.339844 42.316406 18.90625 42.308594 18.808594 C 42.304688 18.710938 42.292969 17.734375 42.289062 16.640625 C 42.28125 15.546875 42.273438 14.097656 42.265625 13.417969 L 42.257812 12.183594 L 42.3125 12.160156 C 42.632812 12.039062 43.453125 11.964844 43.839844 12.015625 Z M 43.839844 12.015625 " fill-opacity="1" fill-rule="nonzero"/><path fill="#9e9f9e" d="M 2.4375 6.363281 C 2.4375 6.699219 2.4375 6.707031 2.484375 6.714844 C 2.507812 6.71875 2.691406 6.738281 2.886719 6.753906 C 3.515625 6.8125 3.921875 6.964844 4.242188 7.261719 C 4.390625 7.398438 4.425781 7.445312 4.511719 7.628906 C 4.699219 8.007812 4.765625 8.34375 4.828125 9.195312 C 4.90625 10.308594 4.925781 10.664062 5.007812 12.570312 C 5.027344 13.074219 5.035156 15.542969 5.015625 16.203125 C 4.980469 17.65625 4.867188 19.496094 4.777344 20.152344 C 4.710938 20.613281 4.609375 21.011719 4.484375 21.277344 C 4.324219 21.617188 4.042969 21.847656 3.621094 21.984375 C 3.503906 22.023438 2.554688 22.183594 2.445312 22.183594 C 2.441406 22.183594 2.4375 22.34375 2.4375 22.539062 L 2.4375 22.890625 L 11.605469 22.890625 L 11.605469 22.539062 C 11.605469 22.269531 11.597656 22.183594 11.578125 22.183594 C 11.566406 22.183594 11.320312 22.164062 11.039062 22.140625 C 10.476562 22.097656 10.296875 22.0625 10.042969 21.945312 C 9.539062 21.71875 9.296875 21.398438 9.140625 20.769531 C 9.066406 20.480469 9.050781 20.339844 9.003906 19.699219 C 8.910156 18.390625 8.859375 17.285156 8.839844 15.925781 L 8.828125 14.953125 L 9.226562 14.964844 C 9.445312 14.96875 9.902344 14.980469 10.242188 14.984375 C 11.042969 15.003906 11.175781 15.023438 11.5 15.1875 C 12.113281 15.492188 12.535156 16.152344 12.820312 17.261719 L 12.84375 17.351562 L 13.554688 17.351562 L 13.554688 11.621094 L 12.84375 11.621094 L 12.820312 11.710938 C 12.695312 12.179688 12.601562 12.433594 12.453125 12.726562 C 12.203125 13.234375 11.910156 13.546875 11.507812 13.75 C 11.199219 13.902344 11.042969 13.929688 10.339844 13.941406 C 10.027344 13.949219 9.558594 13.960938 9.300781 13.96875 L 8.835938 13.980469 L 8.839844 12.824219 C 8.84375 10.660156 8.917969 8.246094 9 7.328125 L 9.011719 7.175781 L 10.492188 7.171875 C 11.96875 7.167969 12.238281 7.175781 12.5625 7.238281 C 14.074219 7.515625 15.171875 8.6875 15.855469 10.742188 C 15.898438 10.878906 15.941406 10.972656 15.957031 10.96875 C 15.96875 10.964844 16.152344 10.910156 16.367188 10.851562 C 16.582031 10.789062 16.761719 10.734375 16.769531 10.726562 C 16.777344 10.722656 16.75 9.679688 16.710938 8.414062 C 16.671875 7.148438 16.640625 6.089844 16.640625 6.0625 L 16.640625 6.019531 L 2.4375 6.019531 Z M 2.4375 6.363281 " fill-opacity="1" fill-rule="nonzero"/><path fill="#9e9f9e" d="M 20.929688 10.492188 C 20.203125 10.519531 19.5 10.644531 18.898438 10.851562 C 18.058594 11.136719 17.394531 11.558594 16.753906 12.207031 C 16.289062 12.679688 15.984375 13.09375 15.703125 13.632812 C 15.335938 14.339844 15.136719 15.011719 15.019531 15.933594 C 14.976562 16.285156 14.984375 17.539062 15.03125 17.890625 C 15.1875 19.039062 15.523438 19.972656 16.070312 20.789062 C 16.996094 22.171875 18.191406 22.882812 19.976562 23.113281 C 20.324219 23.15625 21.304688 23.175781 21.675781 23.144531 C 23.03125 23.027344 24.113281 22.621094 25.03125 21.886719 C 25.28125 21.6875 25.707031 21.261719 25.917969 20.996094 C 26.695312 20.039062 27.128906 18.910156 27.257812 17.539062 C 27.289062 17.207031 27.289062 16.351562 27.257812 16.039062 C 27.121094 14.648438 26.714844 13.539062 25.976562 12.5625 C 25.75 12.261719 25.535156 12.019531 25.316406 11.824219 C 24.472656 11.074219 23.398438 10.648438 22.03125 10.515625 C 21.792969 10.496094 21.167969 10.480469 20.929688 10.492188 Z M 21.582031 11.359375 C 22.195312 11.5625 22.644531 12.132812 23.007812 13.167969 C 23.34375 14.125 23.507812 15.472656 23.488281 17.070312 C 23.457031 19.074219 23.242188 20.378906 22.78125 21.273438 C 22.398438 22.023438 21.871094 22.390625 21.183594 22.390625 C 20.703125 22.390625 20.257812 22.171875 19.929688 21.773438 C 19.296875 21.003906 18.921875 19.710938 18.800781 17.914062 C 18.773438 17.492188 18.773438 16.09375 18.800781 15.625 C 18.964844 12.890625 19.617188 11.5 20.828125 11.308594 C 21.050781 11.277344 21.394531 11.296875 21.582031 11.359375 Z M 21.582031 11.359375 " fill-opacity="1" fill-rule="nonzero"/><path fill="#9e9f9e" d="M 35.949219 10.5 C 35.109375 10.59375 34.066406 11.257812 33.433594 12.101562 C 33.1875 12.429688 33.035156 12.695312 32.777344 13.246094 C 32.753906 13.296875 32.757812 12.097656 32.785156 10.960938 C 32.796875 10.535156 32.792969 10.496094 32.761719 10.496094 C 32.730469 10.496094 27.582031 11.5 27.449219 11.53125 C 27.40625 11.542969 27.402344 11.550781 27.402344 11.789062 L 27.402344 12.035156 L 27.628906 12.046875 C 28.144531 12.074219 28.394531 12.167969 28.625 12.410156 C 28.785156 12.574219 28.882812 12.761719 28.960938 13.039062 C 29.023438 13.257812 29.050781 13.4375 29.101562 14.058594 C 29.265625 16.015625 29.265625 17.921875 29.101562 20.121094 C 29.023438 21.183594 28.9375 21.472656 28.597656 21.8125 C 28.359375 22.050781 28.203125 22.113281 27.679688 22.183594 L 27.414062 22.21875 L 27.40625 22.554688 L 27.402344 22.890625 L 34.914062 22.890625 L 34.914062 22.226562 L 34.847656 22.21875 C 34.808594 22.210938 34.574219 22.191406 34.328125 22.175781 C 34.066406 22.15625 33.824219 22.128906 33.761719 22.109375 C 33.3125 21.976562 33.027344 21.628906 32.890625 21.042969 C 32.839844 20.832031 32.753906 19.925781 32.6875 18.902344 C 32.660156 18.445312 32.644531 15.980469 32.671875 15.453125 C 32.679688 15.230469 32.703125 14.839844 32.722656 14.578125 C 32.753906 14.132812 32.757812 14.109375 32.808594 14.03125 C 33.039062 13.699219 33.691406 13.472656 34.410156 13.472656 C 34.984375 13.472656 35.53125 13.617188 36.152344 13.921875 C 36.296875 13.996094 36.4375 14.066406 36.460938 14.082031 C 36.484375 14.097656 36.511719 14.105469 36.515625 14.101562 C 36.519531 14.09375 36.820312 13.359375 37.175781 12.464844 L 37.828125 10.839844 L 37.738281 10.792969 C 37.304688 10.574219 36.476562 10.441406 35.949219 10.5 Z M 35.949219 10.5 " fill-opacity="1" fill-rule="nonzero"/><path fill="#9e9f9e" d="M 67.894531 10.5 C 66.855469 10.554688 65.921875 10.839844 65.191406 11.328125 C 64.90625 11.519531 64.710938 11.679688 64.449219 11.953125 C 63.785156 12.636719 63.464844 13.410156 63.464844 14.351562 C 63.464844 14.742188 63.488281 14.976562 63.5625 15.277344 C 63.785156 16.214844 64.359375 16.84375 65.519531 17.429688 C 65.910156 17.628906 66.191406 17.746094 66.8125 17.976562 C 68.328125 18.535156 68.90625 18.90625 69.214844 19.511719 C 69.460938 20 69.433594 20.660156 69.140625 21.152344 C 69.019531 21.355469 68.660156 21.726562 68.472656 21.832031 C 68.085938 22.054688 67.605469 22.148438 67.089844 22.101562 C 66.664062 22.0625 66.367188 21.980469 66.007812 21.792969 C 65.164062 21.363281 64.460938 20.453125 63.914062 19.089844 L 63.769531 18.730469 L 63.488281 18.8125 C 63.332031 18.859375 63.199219 18.902344 63.1875 18.910156 C 63.171875 18.925781 63.292969 22.144531 63.316406 22.328125 L 63.332031 22.441406 L 63.59375 22.535156 C 64.449219 22.832031 65.304688 23.011719 66.382812 23.121094 C 66.742188 23.160156 67.949219 23.171875 68.300781 23.144531 C 69.804688 23.023438 70.894531 22.582031 71.714844 21.769531 C 72.042969 21.441406 72.257812 21.132812 72.429688 20.738281 C 72.53125 20.511719 72.644531 20.132812 72.6875 19.875 C 72.730469 19.644531 72.765625 19.074219 72.753906 18.914062 C 72.746094 18.851562 72.738281 18.726562 72.730469 18.640625 C 72.6875 18.136719 72.519531 17.632812 72.269531 17.257812 C 71.824219 16.589844 70.960938 16.03125 69.574219 15.507812 C 67.742188 14.816406 67.066406 14.355469 66.828125 13.625 C 66.789062 13.503906 66.773438 13.40625 66.765625 13.199219 C 66.742188 12.585938 66.898438 12.144531 67.285156 11.765625 C 67.578125 11.476562 67.863281 11.359375 68.316406 11.335938 C 69.664062 11.269531 70.691406 12.148438 71.371094 13.953125 C 71.433594 14.117188 71.484375 14.261719 71.484375 14.277344 C 71.484375 14.289062 71.492188 14.3125 71.5 14.328125 C 71.519531 14.351562 71.570312 14.34375 71.800781 14.277344 C 71.953125 14.234375 72.089844 14.191406 72.097656 14.183594 C 72.113281 14.167969 71.996094 11.296875 71.972656 11.191406 C 71.96875 11.15625 71.914062 11.125 71.695312 11.042969 C 70.625 10.628906 69.234375 10.429688 67.894531 10.5 Z M 67.894531 10.5 " fill-opacity="1" fill-rule="nonzero"/><path fill="#9e9f9e" d="M 56.773438 10.539062 C 54.75 10.695312 53.265625 11.535156 52.210938 13.121094 C 51.429688 14.292969 51.070312 15.757812 51.15625 17.382812 C 51.230469 18.816406 51.683594 20.019531 52.523438 21.019531 C 53.457031 22.128906 54.734375 22.851562 56.167969 23.078125 C 56.628906 23.152344 56.933594 23.167969 57.503906 23.15625 C 58.589844 23.132812 59.285156 22.96875 60.175781 22.523438 C 60.867188 22.175781 61.292969 21.882812 61.738281 21.445312 C 61.902344 21.285156 62.074219 21.097656 62.125 21.035156 L 62.214844 20.914062 L 62.0625 20.730469 C 61.976562 20.628906 61.898438 20.535156 61.882812 20.519531 C 61.863281 20.5 61.828125 20.515625 61.695312 20.609375 C 60.855469 21.207031 59.746094 21.46875 58.558594 21.339844 C 57.246094 21.203125 56.355469 20.671875 55.640625 19.609375 C 55.105469 18.816406 54.859375 17.953125 54.832031 16.78125 L 54.816406 16.265625 L 62.425781 16.265625 L 62.414062 15.886719 C 62.34375 13.835938 61.523438 12.152344 60.164062 11.261719 C 59.625 10.910156 58.949219 10.671875 58.203125 10.570312 C 57.914062 10.53125 57.113281 10.511719 56.773438 10.539062 Z M 57.289062 11.320312 C 57.832031 11.433594 58.191406 11.910156 58.425781 12.8125 C 58.5625 13.359375 58.660156 14.304688 58.664062 15.085938 L 58.664062 15.351562 L 58.34375 15.351562 C 58.167969 15.351562 58.003906 15.355469 57.980469 15.359375 C 57.957031 15.363281 57.554688 15.375 57.078125 15.378906 C 56.609375 15.386719 55.921875 15.398438 55.566406 15.40625 L 54.90625 15.417969 L 54.90625 15.304688 C 54.90625 15.121094 54.949219 14.679688 54.992188 14.359375 C 55.171875 13.125 55.640625 12.039062 56.183594 11.609375 C 56.421875 11.417969 56.761719 11.292969 57.046875 11.289062 C 57.101562 11.289062 57.210938 11.304688 57.289062 11.320312 Z M 57.289062 11.320312 " fill-opacity="1" fill-rule="nonzero"/></svg>