<svg xmlns="http://www.w3.org/2000/svg" xmlns:xlink="http://www.w3.org/1999/xlink" width="146" zoomAndPan="magnify" viewBox="0 0 109.5 30.000001" height="40" preserveAspectRatio="xMidYMid meet" version="1.0"><defs><clipPath id="646048ca7b"><path d="M 4.441406 4.796875 L 105 4.796875 L 105 24.480469 L 4.441406 24.480469 Z M 4.441406 4.796875 " clip-rule="nonzero"/></clipPath></defs><g clip-path="url(#646048ca7b)"><path fill="#9e9f9e" d="M 13.617188 4.796875 L 13.382812 8.324219 L 11.667969 8.324219 L 11.511719 6.128906 L 8.78125 6.128906 L 8.78125 11.382812 L 9.957031 11.382812 C 10.035156 10.988281 10.113281 10.597656 10.265625 10.203125 L 11.515625 10.203125 L 11.515625 13.808594 L 10.339844 13.808594 C 10.261719 13.417969 10.105469 13.023438 10.027344 12.628906 L 8.855469 12.628906 L 8.855469 18.207031 L 11.585938 18.207031 L 11.816406 15.773438 L 13.691406 15.855469 L 13.847656 19.542969 L 4.882812 19.542969 L 4.882812 18.28125 L 6.132812 18.042969 L 6.132812 6.285156 C 5.636719 6.210938 5.144531 6.132812 4.648438 6.050781 L 4.648438 4.796875 Z M 45.273438 24.480469 C 45.273438 24.089844 45.351562 23.777344 45.351562 23.460938 L 46.289062 23.226562 L 46.289062 10.675781 C 45.898438 10.597656 45.585938 10.597656 45.199219 10.519531 L 45.199219 9.5 L 48.160156 9.109375 C 48.238281 9.5 48.394531 9.890625 48.472656 10.207031 C 48.550781 10.207031 48.550781 10.125 48.628906 10.125 C 49.332031 9.265625 50.265625 9.027344 51.359375 9.105469 C 52.679688 9.265625 53.464844 10.125 53.777344 11.304688 C 53.933594 11.851562 54.085938 12.398438 54.085938 12.949219 C 54.164062 14.132812 54.164062 15.300781 54.007812 16.402344 C 53.929688 16.792969 53.773438 17.265625 53.621094 17.65625 C 53.074219 18.835938 52.136719 19.539062 50.890625 19.617188 C 50.1875 19.695312 49.570312 19.617188 48.941406 19.304688 L 48.785156 19.304688 L 48.785156 23.226562 C 49.121094 23.3125 49.457031 23.390625 49.796875 23.460938 C 49.796875 23.773438 49.71875 24.085938 49.71875 24.480469 Z M 48.785156 17.972656 C 49.5625 18.285156 50.34375 18.363281 51.121094 18.050781 C 51.265625 17.988281 51.371094 17.882812 51.433594 17.738281 C 51.511719 17.34375 51.667969 16.953125 51.667969 16.554688 C 51.824219 15.375 51.824219 14.125 51.746094 12.949219 C 51.742188 12.515625 51.667969 12.097656 51.511719 11.691406 C 51.277344 10.832031 50.65625 10.511719 49.796875 10.671875 L 49.640625 10.671875 C 49.09375 10.753906 48.78125 11.144531 48.78125 11.691406 L 48.78125 17.96875 Z M 78.414062 18.207031 L 79.429688 18.441406 C 79.429688 18.832031 79.429688 19.148438 79.351562 19.539062 L 75.921875 19.539062 L 75.921875 12.480469 C 75.921875 12.167969 75.84375 11.855469 75.765625 11.539062 C 75.683594 11.148438 75.375 10.992188 74.984375 10.914062 C 74.59375 10.835938 74.28125 10.835938 73.96875 10.992188 C 73.65625 11.148438 73.425781 11.304688 73.425781 11.699219 L 73.425781 18.207031 L 74.4375 18.441406 C 74.4375 18.753906 74.359375 19.148438 74.359375 19.539062 L 69.992188 19.539062 L 69.992188 18.441406 L 71.007812 18.207031 L 71.007812 10.75 C 70.617188 10.671875 70.304688 10.671875 69.914062 10.59375 L 69.914062 9.496094 L 72.800781 9.101562 L 73.035156 10.042969 C 73.269531 9.886719 73.503906 9.652344 73.734375 9.496094 C 74.671875 8.867188 75.761719 8.789062 76.777344 9.179688 C 77.636719 9.496094 78.097656 10.199219 78.257812 11.140625 C 78.335938 11.378906 78.335938 11.691406 78.335938 11.925781 L 78.335938 17.808594 C 78.414062 17.964844 78.414062 18.121094 78.414062 18.199219 Z M 18.058594 18.28125 L 19.074219 18.515625 C 19.074219 18.90625 18.996094 19.222656 18.996094 19.613281 L 14.550781 19.613281 C 14.550781 19.300781 14.550781 18.90625 14.628906 18.515625 L 15.566406 18.28125 C 15.644531 18.042969 15.644531 11.222656 15.566406 10.828125 C 15.253906 10.75 14.863281 10.75 14.472656 10.671875 L 14.472656 9.570312 C 15.410156 9.410156 16.34375 9.332031 17.359375 9.175781 L 17.59375 10.117188 L 17.828125 9.882812 C 18.761719 9.097656 19.855469 8.863281 21.023438 9.175781 C 22.039062 9.410156 22.582031 10.117188 22.816406 11.136719 C 22.894531 11.371094 22.894531 11.6875 22.894531 11.921875 L 22.894531 18.195312 C 23.285156 18.277344 23.597656 18.355469 23.910156 18.433594 L 23.910156 19.53125 L 20.476562 19.53125 L 20.476562 12.714844 C 20.476562 12.480469 20.476562 12.167969 20.398438 11.933594 C 20.320312 11.304688 19.929688 10.992188 19.382812 10.914062 C 18.917969 10.832031 18.527344 10.914062 18.210938 11.304688 C 18.054688 11.460938 18.054688 11.617188 18.054688 11.855469 L 18.054688 18.28125 Z M 94.167969 10.519531 C 93.777344 10.519531 93.464844 10.441406 93.074219 10.441406 L 93.074219 9.5 L 96.429688 9.109375 C 96.585938 9.5 96.742188 9.890625 96.742188 10.363281 L 96.742188 18.28125 C 97.082031 18.351562 97.417969 18.429688 97.753906 18.515625 C 97.753906 18.90625 97.675781 19.222656 97.675781 19.613281 L 94.792969 19.613281 C 94.710938 19.378906 94.632812 19.0625 94.558594 18.75 C 94.480469 18.828125 94.402344 18.90625 94.324219 18.90625 C 93.148438 20.003906 91.59375 19.847656 90.582031 19.378906 C 89.800781 18.984375 89.40625 18.359375 89.257812 17.496094 C 89.179688 17.183594 89.179688 16.945312 89.179688 16.632812 L 89.179688 10.59375 C 88.789062 10.515625 88.402344 10.515625 88.089844 10.4375 L 88.089844 9.496094 L 91.363281 9.101562 C 91.441406 9.496094 91.597656 9.808594 91.597656 10.199219 L 91.597656 16.160156 C 91.597656 16.398438 91.597656 16.710938 91.675781 16.945312 C 91.753906 17.652344 92.222656 18.128906 92.925781 18.128906 C 93.160156 18.128906 93.46875 18.046875 93.703125 18.046875 C 93.9375 17.96875 94.328125 17.5 94.328125 17.265625 L 94.328125 10.757812 C 94.171875 10.675781 94.171875 10.597656 94.171875 10.519531 Z M 39.734375 14.992188 C 39.734375 15.855469 39.894531 16.558594 40.28125 17.265625 C 40.671875 17.816406 41.21875 18.128906 41.917969 18.207031 C 42.621094 18.207031 43.242188 18.050781 43.871094 17.816406 C 43.949219 17.816406 44.027344 17.734375 44.179688 17.734375 C 44.335938 18.050781 44.414062 18.363281 44.570312 18.675781 C 44.414062 18.835938 44.179688 18.910156 44.023438 19.070312 C 42.777344 19.773438 41.449219 20.011719 40.125 19.539062 C 38.953125 19.226562 38.253906 18.441406 37.707031 17.34375 C 37.164062 16.164062 37.007812 14.914062 37.164062 13.652344 C 37.242188 12.867188 37.398438 12.082031 37.707031 11.378906 C 38.253906 10.195312 39.113281 9.417969 40.359375 9.179688 C 41.605469 8.945312 42.699219 9.101562 43.636719 9.964844 C 44.179688 10.515625 44.492188 11.222656 44.726562 11.925781 C 44.960938 12.710938 45.039062 13.417969 45.039062 14.203125 C 45.039062 14.4375 44.882812 14.671875 44.804688 14.984375 L 39.734375 14.984375 Z M 42.777344 13.664062 C 42.777344 13.347656 42.699219 13.113281 42.699219 12.878906 C 42.621094 12.25 42.542969 11.695312 42.230469 11.152344 C 41.917969 10.523438 41.375 10.367188 40.75 10.601562 C 40.515625 10.683594 40.359375 10.839844 40.203125 11.074219 C 39.890625 11.9375 39.734375 12.800781 39.65625 13.664062 L 39.65625 13.898438 Z M 87.457031 14.992188 C 85.742188 14.992188 84.105469 15.070312 82.390625 15.070312 C 82.3125 15.460938 82.390625 15.777344 82.46875 16.089844 C 82.546875 16.640625 82.777344 17.109375 83.089844 17.5 C 83.480469 17.972656 83.949219 18.207031 84.574219 18.207031 C 85.195312 18.207031 85.820312 18.128906 86.445312 17.894531 C 86.601562 17.816406 86.679688 17.816406 86.835938 17.738281 C 86.992188 18.050781 87.066406 18.363281 87.222656 18.675781 C 87.144531 18.675781 87.144531 18.757812 87.066406 18.757812 C 85.976562 19.539062 84.804688 19.777344 83.480469 19.699219 C 81.921875 19.539062 80.832031 18.601562 80.285156 17.109375 C 79.503906 15.226562 79.582031 13.34375 80.363281 11.460938 C 80.832031 10.28125 81.683594 9.421875 83.011719 9.1875 C 84.027344 8.953125 85.039062 9.03125 85.898438 9.65625 C 86.523438 10.128906 86.914062 10.753906 87.21875 11.382812 C 87.53125 12.246094 87.6875 13.265625 87.6875 14.207031 C 87.6875 14.441406 87.53125 14.675781 87.453125 14.992188 Z M 85.507812 13.664062 C 85.507812 12.957031 85.429688 12.332031 85.195312 11.703125 C 85.117188 11.386719 84.964844 11.074219 84.730469 10.839844 C 84.339844 10.289062 83.089844 10.445312 82.9375 11.152344 C 82.78125 11.703125 82.625 12.25 82.546875 12.878906 C 82.46875 13.191406 82.46875 13.503906 82.46875 13.898438 Z M 69.523438 14.992188 C 67.808594 14.992188 66.171875 15.070312 64.453125 15.070312 C 64.453125 16.011719 64.609375 16.796875 65.15625 17.5 C 65.546875 17.972656 66.011719 18.207031 66.558594 18.207031 C 67.183594 18.207031 67.882812 18.128906 68.429688 17.894531 C 68.589844 17.816406 68.664062 17.816406 68.820312 17.734375 C 68.976562 18.050781 69.054688 18.363281 69.210938 18.675781 C 69.054688 18.753906 68.976562 18.835938 68.898438 18.910156 C 67.726562 19.617188 66.484375 19.851562 65.15625 19.617188 C 63.910156 19.382812 63.050781 18.597656 62.503906 17.5 C 61.960938 16.320312 61.804688 15.148438 61.882812 13.890625 C 61.960938 13.03125 62.117188 12.246094 62.425781 11.460938 C 62.816406 10.519531 63.441406 9.8125 64.378906 9.421875 C 65.46875 8.953125 66.558594 8.953125 67.652344 9.5 C 68.355469 9.894531 68.828125 10.519531 69.132812 11.226562 C 69.523438 12.167969 69.679688 13.1875 69.679688 14.207031 C 69.757812 14.441406 69.601562 14.675781 69.523438 14.992188 Z M 67.574219 13.664062 C 67.574219 13.347656 67.496094 13.035156 67.496094 12.722656 C 67.417969 12.171875 67.339844 11.625 67.027344 11.152344 C 66.636719 10.523438 66.09375 10.289062 65.46875 10.601562 C 65.3125 10.683594 65.15625 10.761719 65.078125 10.996094 C 64.765625 11.625 64.609375 12.324219 64.53125 13.035156 C 64.53125 13.269531 64.453125 13.503906 64.453125 13.820312 C 65.46875 13.820312 66.480469 13.742188 67.574219 13.660156 Z M 33.109375 9.1875 L 33.339844 10.128906 C 33.5 10.050781 33.574219 9.96875 33.730469 9.894531 C 34.4375 9.5 35.191406 9.265625 35.992188 9.1875 C 36.382812 9.109375 36.695312 9.265625 36.929688 9.578125 L 36.617188 12.324219 C 36.070312 12.324219 35.527344 12.246094 34.980469 12.246094 C 34.902344 11.777344 34.824219 11.304688 34.824219 10.757812 C 34.433594 10.757812 34.121094 10.914062 33.808594 11.148438 L 33.808594 18.207031 L 34.824219 18.441406 C 34.824219 18.753906 34.824219 19.148438 34.746094 19.460938 L 30.375 19.460938 L 30.375 18.441406 L 31.3125 18.207031 L 31.3125 10.757812 C 30.921875 10.675781 30.609375 10.675781 30.222656 10.597656 L 30.222656 9.5 C 31.15625 9.5 32.09375 9.34375 33.105469 9.1875 Z M 98.214844 19.539062 C 98.214844 19.148438 98.214844 18.835938 98.292969 18.519531 L 99.230469 18.285156 L 99.230469 10.832031 C 98.917969 10.753906 98.527344 10.753906 98.136719 10.675781 L 98.136719 9.578125 L 101.101562 9.1875 L 101.335938 10.050781 L 102.582031 9.5 C 103.050781 9.34375 103.441406 9.265625 103.902344 9.1875 C 104.292969 9.109375 104.605469 9.1875 104.839844 9.578125 L 104.527344 12.324219 C 103.980469 12.324219 103.4375 12.246094 102.890625 12.246094 C 102.8125 11.773438 102.734375 11.226562 102.734375 10.753906 L 101.71875 11.148438 L 101.71875 18.28125 C 102.054688 18.367188 102.394531 18.445312 102.734375 18.515625 C 102.734375 18.828125 102.65625 19.222656 102.65625 19.535156 L 98.210938 19.535156 Z M 59.460938 10.757812 L 58.449219 11.148438 L 58.449219 18.28125 L 59.460938 18.515625 C 59.460938 18.90625 59.382812 19.222656 59.382812 19.535156 L 55.015625 19.535156 L 55.015625 18.515625 L 55.953125 18.28125 L 55.953125 10.832031 C 55.5625 10.753906 55.25 10.753906 54.863281 10.675781 L 54.863281 9.578125 L 57.824219 9.1875 L 58.058594 10.050781 L 58.917969 9.578125 C 59.464844 9.339844 60.039062 9.183594 60.632812 9.109375 C 61.101562 9.109375 61.410156 9.265625 61.644531 9.578125 L 61.335938 12.324219 C 60.789062 12.324219 60.242188 12.246094 59.695312 12.246094 L 59.460938 10.753906 Z M 27.492188 7.226562 L 27.492188 9.34375 L 29.285156 9.34375 C 29.207031 9.816406 29.207031 10.207031 29.207031 10.671875 C 28.660156 10.671875 28.117188 10.75 27.570312 10.832031 L 27.570312 17.503906 C 27.648438 17.894531 27.882812 18.207031 28.347656 18.207031 L 29.363281 18.207031 C 29.363281 18.601562 29.441406 18.914062 29.441406 19.304688 C 29.207031 19.464844 28.894531 19.539062 28.582031 19.621094 C 27.960938 19.777344 27.335938 19.777344 26.710938 19.699219 C 25.777344 19.539062 25.152344 18.914062 24.996094 17.894531 L 24.996094 10.832031 C 24.605469 10.753906 24.214844 10.675781 23.824219 10.675781 C 23.824219 10.285156 23.824219 9.8125 23.902344 9.421875 C 24.367188 9.421875 24.757812 9.34375 25.222656 9.34375 L 25.769531 7.382812 L 27.484375 7.222656 Z M 27.492188 7.226562 " fill-opacity="1" fill-rule="evenodd"/></g><path fill="#9e9f9e" d="M 49.757812 22.90625 C 49.757812 23.101562 49.5625 23.25 49.367188 23.25 C 49.121094 23.25 48.925781 23.101562 48.925781 22.90625 C 48.925781 22.710938 49.121094 22.5625 49.367188 22.5625 C 49.613281 22.5625 49.757812 22.710938 49.757812 22.90625 Z M 49.074219 22.90625 C 49.074219 23.054688 49.222656 23.152344 49.367188 23.152344 C 49.515625 23.152344 49.660156 23.054688 49.660156 22.90625 C 49.660156 22.757812 49.515625 22.660156 49.367188 22.660156 C 49.171875 22.660156 49.074219 22.757812 49.074219 22.90625 Z M 49.320312 23.101562 L 49.222656 23.101562 L 49.222656 22.757812 L 49.367188 22.757812 C 49.464844 22.757812 49.464844 22.757812 49.515625 22.808594 L 49.5625 22.855469 C 49.5625 22.90625 49.515625 22.90625 49.464844 22.957031 C 49.515625 22.957031 49.515625 23.003906 49.5625 23.054688 C 49.5625 23.101562 49.5625 23.101562 49.613281 23.152344 L 49.464844 23.152344 C 49.464844 23.152344 49.464844 23.101562 49.417969 23.101562 C 49.417969 23.054688 49.367188 23.054688 49.367188 23.054688 L 49.320312 23.054688 Z M 49.320312 22.90625 C 49.417969 22.90625 49.417969 22.90625 49.417969 22.855469 C 49.417969 22.808594 49.367188 22.808594 49.367188 22.808594 L 49.320312 22.808594 Z M 49.320312 22.90625 " fill-opacity="1" fill-rule="nonzero"/></svg>