<svg xmlns="http://www.w3.org/2000/svg" xmlns:xlink="http://www.w3.org/1999/xlink" width="100" zoomAndPan="magnify" viewBox="0 0 75 30.000001" height="40" preserveAspectRatio="xMidYMid meet" version="1.0"><defs><clipPath id="30e77c713c"><path d="M 9.148438 3 L 19 3 L 19 26 L 9.148438 26 Z M 9.148438 3 " clip-rule="nonzero"/></clipPath><clipPath id="887c6bb992"><path d="M 55 3 L 65.761719 3 L 65.761719 26 L 55 26 Z M 55 3 " clip-rule="nonzero"/></clipPath></defs><g clip-path="url(#30e77c713c)"><path fill="#9e9f9e" d="M 9.523438 3.449219 L 9.523438 3.609375 L 11.222656 3.609375 L 11.222656 25.382812 L 9.523438 25.382812 L 9.523438 25.707031 L 18.960938 25.707031 L 18.957031 22.734375 L 18.949219 19.761719 L 18.816406 19.753906 L 18.675781 19.75 L 18.675781 19.8125 C 18.675781 19.847656 18.667969 20.035156 18.65625 20.234375 C 18.566406 21.960938 18.261719 23.277344 17.777344 24.007812 C 17.546875 24.359375 17.082031 24.746094 16.628906 24.960938 C 16.089844 25.21875 15.578125 25.3125 14.542969 25.347656 C 14.246094 25.355469 13.984375 25.367188 13.957031 25.367188 L 13.902344 25.367188 L 13.902344 14.378906 L 14.171875 14.390625 C 14.640625 14.410156 15.042969 14.507812 15.332031 14.671875 C 15.722656 14.894531 16.117188 15.457031 16.316406 16.066406 C 16.472656 16.535156 16.5625 17.304688 16.5625 18.128906 L 16.5625 18.410156 L 16.867188 18.410156 L 16.867188 10 L 16.570312 10 L 16.558594 10.53125 C 16.539062 11.332031 16.488281 11.769531 16.363281 12.21875 C 16.230469 12.714844 16.007812 13.113281 15.667969 13.472656 C 15.335938 13.824219 14.878906 13.996094 14.210938 14.019531 L 13.902344 14.03125 L 13.902344 3.625 L 14.464844 3.632812 C 15.574219 3.65625 16.140625 3.796875 16.730469 4.191406 C 16.929688 4.328125 17.265625 4.613281 17.375 4.746094 C 17.730469 5.167969 17.996094 5.828125 18.1875 6.761719 C 18.300781 7.328125 18.394531 8.089844 18.421875 8.683594 C 18.429688 8.808594 18.4375 8.980469 18.441406 9.066406 L 18.453125 9.222656 L 18.714844 9.222656 L 18.714844 3.289062 L 9.523438 3.289062 Z M 9.523438 3.449219 " fill-opacity="1" fill-rule="nonzero"/></g><path fill="#9e9f9e" d="M 25.28125 3.441406 L 25.28125 3.589844 L 26.980469 3.589844 L 26.980469 25.402344 L 25.28125 25.402344 L 25.28125 25.742188 L 29.996094 25.738281 L 34.707031 25.734375 L 34.714844 22.761719 L 34.71875 19.789062 L 34.4375 19.789062 L 34.425781 19.964844 C 34.421875 20.058594 34.40625 20.289062 34.394531 20.46875 C 34.324219 21.652344 34.101562 22.789062 33.800781 23.507812 C 33.605469 23.976562 33.40625 24.25 33.054688 24.542969 C 32.503906 25 31.953125 25.214844 31.054688 25.324219 C 30.847656 25.351562 30.207031 25.382812 29.902344 25.382812 L 29.660156 25.382812 L 29.660156 3.609375 L 31.207031 3.609375 L 31.207031 3.289062 L 25.28125 3.289062 Z M 25.28125 3.441406 " fill-opacity="1" fill-rule="nonzero"/><path fill="#9e9f9e" d="M 40.433594 3.441406 L 40.433594 3.589844 L 42.132812 3.589844 L 42.132812 25.402344 L 40.433594 25.402344 L 40.433594 25.742188 L 49.851562 25.742188 L 49.851562 19.789062 L 49.570312 19.789062 L 49.570312 19.964844 C 49.570312 20.058594 49.558594 20.261719 49.550781 20.414062 C 49.425781 22.183594 49.097656 23.472656 48.59375 24.144531 C 48.355469 24.460938 47.945312 24.777344 47.503906 24.988281 C 46.957031 25.25 46.378906 25.351562 45.289062 25.375 L 44.792969 25.390625 L 44.796875 14.503906 L 44.804688 3.621094 L 45.574219 3.613281 L 46.339844 3.609375 L 46.339844 3.289062 L 40.433594 3.289062 Z M 40.433594 3.441406 " fill-opacity="1" fill-rule="nonzero"/><g clip-path="url(#887c6bb992)"><path fill="#9e9f9e" d="M 55.945312 3.449219 L 55.945312 3.609375 L 56.800781 3.613281 L 57.65625 3.621094 L 57.660156 14.5 L 57.664062 25.382812 L 55.945312 25.382812 L 55.945312 25.707031 L 65.382812 25.707031 L 65.382812 19.75 L 65.105469 19.75 L 65.09375 20.085938 C 65.046875 21.375 64.835938 22.601562 64.53125 23.367188 C 64.363281 23.789062 64.210938 24.042969 63.972656 24.292969 C 63.449219 24.835938 62.84375 25.140625 62.070312 25.257812 C 61.679688 25.320312 61.054688 25.359375 60.378906 25.367188 L 60.324219 25.367188 L 60.324219 14.382812 L 60.503906 14.382812 C 60.914062 14.382812 61.371094 14.480469 61.683594 14.632812 C 61.859375 14.71875 61.902344 14.75 62.0625 14.914062 C 62.710938 15.570312 62.984375 16.496094 62.984375 18.027344 L 62.984375 18.410156 L 63.140625 18.40625 L 63.296875 18.398438 L 63.296875 10.007812 L 62.996094 10.007812 L 62.984375 10.566406 C 62.976562 10.871094 62.960938 11.222656 62.949219 11.339844 C 62.84375 12.371094 62.574219 13.015625 62.027344 13.535156 C 61.699219 13.847656 61.277344 13.996094 60.640625 14.019531 L 60.324219 14.03125 L 60.324219 3.628906 L 60.730469 3.628906 C 62.167969 3.628906 62.886719 3.867188 63.652344 4.59375 C 63.921875 4.847656 64.109375 5.144531 64.285156 5.589844 C 64.59375 6.367188 64.808594 7.585938 64.867188 8.925781 L 64.878906 9.222656 L 65.15625 9.222656 L 65.15625 3.289062 L 55.945312 3.289062 Z M 55.945312 3.449219 " fill-opacity="1" fill-rule="nonzero"/></g></svg>